<?xml version="1.0" encoding="utf-8"?>
<!-- Generator: Adobe Illustrator 16.0.0, SVG Export Plug-In . SVG Version: 6.00 Build 0)  -->
<!DOCTYPE svg PUBLIC "-//W3C//DTD SVG 1.1//EN" "http://www.w3.org/Graphics/SVG/1.1/DTD/svg11.dtd">
<svg version="1.1" id="图层_1" xmlns="http://www.w3.org/2000/svg" xmlns:xlink="http://www.w3.org/1999/xlink" x="0px" y="0px"
	 width="90px" height="32px" viewBox="0 0 90 32" enable-background="new 0 0 90 32" xml:space="preserve">
<g id="guides">
</g>
<path fill="#FFFFFF" d="M7.333,7.759v0.204v0.869l0.255,0.306h0.664h0.255h1.838l0.256,0.357v1.124l1.021,0.612l0.409,0.563
	l0.407,0.356h6.688v0.358l0.868,1.072l0.716,1.481v1.786l-1.686,1.991l-2.399,3.344l-1.531,3.037l-0.153,0.715l-0.256,2.603
	l0.357,0.817l0.816,0.612l6.28,1.889l1.275-1.276l0.051-1.021l-0.358-0.969l3.881-7.098l0.715-0.152l7.198,1.838h0.46l0.407-0.817
	l2.144-1.684l2.146-0.154l0.204,0.459l7.453-1.274l2.45,0.05l1.021-0.356l19.399-1.582l-0.357,1.479l0.357,0.512l0.408,0.509h0.868
	l0.51-0.509l0.356-1.022h0.46l0.409-0.356l0.306-0.715v-0.817l0.204-1.94l3.369,0.051l0.307,0.408h9.24l0.255-0.713v-2.196
	l-0.357-0.511l-9.035-0.102L77.576,12.2h-3.421v-1.531l-0.612-0.817L55.063,8.984l-6.074-6.382l0.05-0.408l-0.203-0.255
	l-0.663-0.663L47.61,1.123l-0.817-0.714h-2.756l-0.203,0.459l-0.155,1.02l-28.28,0.205l-0.204-0.715h-1.633L13.46,1.684h-0.411
	l-0.101,0.204h-0.204l-0.714,0.46l-0.563,0.562h-0.356l-0.358,0.358h-0.152h-0.408L9.987,4.134l0.051,0.613l-0.306,0.51L9.478,6.993
	L9.12,7.453v0.306H8.404H8.201H7.588H7.333z M70.735,19.398l0.408-1.328l0.767,0.867v0.562l-0.204,0.309h-0.563L70.735,19.398z
	 M44.904,10.107l0.409-1.786V5.666h0.511l1.021,0.307h0.868l0.51-0.307l3.625,4.033v0.664l-0.357,0.306L44.904,10.107z
	 M31.53,18.938l0.306-0.867l0.818-0.612h1.684l1.175,0.612l0.509,1.301l-0.203,1.099l-1.378,0.817h-0.919l-0.867-0.408l-0.716-0.817
	L31.53,18.938z"/>
</svg>
